HIERARCHY
ROOT hips
{
  OFFSET 0 10.6860622 2.3727825e-15
  CHANNELS 6 Xposition Yposition Zposition Yrotation Xrotation Zrotation
  JOINT leftUpperLeg
  {
    OFFSET 0.6642549969 -0.9402397400000004 0
    CHANNELS 3 Yrotation Xrotation Zrotation
    JOINT leftLowerLeg
    {
      OFFSET 0 -3.997221335632195 0
      CHANNELS 3 Yrotation Xrotation Zrotation
      JOINT leftFoot
      {
        OFFSET -0.13777839790000004 -4.6145792000000005 -0.22186036399999998
        CHANNELS 3 Yrotation Xrotation Zrotation
        JOINT leftToes
        {
          OFFSET -0.03777410834999995 -0.9130806927000008 0.85230013
          CHANNELS 3 Yrotation Xrotation Zrotation
          End Site
          {
            OFFSET -0.03777410834999995 -0.9130806927000008 0.85230013
          }
        }
      }
    }
  }
  JOINT rightUpperLeg
  {
    OFFSET -0.6642778626 -0.9402397400000004 0
    CHANNELS 3 Yrotation Xrotation Zrotation
    JOINT rightLowerLeg
    {
      OFFSET 0 -3.997221452859387 0
      CHANNELS 3 Yrotation Xrotation Zrotation
      JOINT rightFoot
      {
        OFFSET 0.1377926176 -4.6145792000000005 -0.22185782299999995
        CHANNELS 3 Yrotation Xrotation Zrotation
        JOINT rightToes
        {
          OFFSET 0.037780746850000047 -0.9130806927000008 0.85230167
          CHANNELS 3 Yrotation Xrotation Zrotation
          End Site
          {
            OFFSET 0.037780746850000047 -0.9130806927000008 0.85230167
          }
        }
      }
    }
  }
  JOINT spine
  {
    OFFSET 0 0.13988381660000015 0
    CHANNELS 3 Yrotation Xrotation Zrotation
    JOINT chest
    {
      OFFSET 0 0.6191039003973773 0
      CHANNELS 3 Yrotation Xrotation Zrotation
      JOINT upperChest
      {
        OFFSET 0 0.9855186130586943 0
        CHANNELS 3 Yrotation Xrotation Zrotation
        JOINT leftShoulder
        {
          OFFSET 0.1807663869 1.5087829790000005 0
          CHANNELS 3 Yrotation Xrotation Zrotation
          JOINT leftUpperArm
          {
            OFFSET 0.5985063006419806 0 0
            CHANNELS 3 Yrotation Xrotation Zrotation
            JOINT leftLowerArm
            {
              OFFSET 2.2993332369501065 0 0
              CHANNELS 3 Yrotation Xrotation Zrotation
              JOINT leftHand
              {
                OFFSET 2.395047042602395 0 0
                CHANNELS 3 Yrotation Xrotation Zrotation
                JOINT leftIndexProximal
                {
                  OFFSET 0.5766295810000004 0.04556643899499946 0.17265095988184
                  CHANNELS 3 Yrotation Xrotation Zrotation
                  JOINT leftIndexIntermediate
                  {
                    OFFSET 0.2957229000000008 -0.019352197700001517 -0.007932640616999987
                    CHANNELS 3 Yrotation Xrotation Zrotation
                    JOINT leftIndexDistal
                    {
                      OFFSET 0.19008243099999922 -0.012484908149998475 -0.002786250786000012
                      CHANNELS 3 Yrotation Xrotation Zrotation
                      End Site
                      {
                        OFFSET 0.19008243099999922 -0.012484908149998475 -0.002786250786000012
                      }
                    }
                  }
                }
                JOINT leftMiddleProximal
                {
                  OFFSET 0.5834975091000001 0.0524350405149987 0.02204081888183999
                  CHANNELS 3 Yrotation Xrotation Zrotation
                  JOINT leftMiddleIntermediate
                  {
                    OFFSET 0.33880573540000003 -0.019871473270000717 -0.00000971183179999946
                    CHANNELS 3 Yrotation Xrotation Zrotation
                    JOINT leftMiddleDistal
                    {
                      OFFSET 0.20676022730000088 -0.012221336379999448 0.0001471936708000235
                      CHANNELS 3 Yrotation Xrotation Zrotation
                      End Site
                      {
                        OFFSET 0.20676022730000088 -0.012221336379999448 0.0001471936708000235
                      }
                    }
                  }
                }
                JOINT leftLittleProximal
                {
                  OFFSET 0.5344154683999995 -0.012880921405001189 -0.24414037221816004
                  CHANNELS 3 Yrotation Xrotation Zrotation
                  JOINT leftLittleIntermediate
                  {
                    OFFSET 0.21758961730000093 -0.011650919939999227 0.011893592810000034
                    CHANNELS 3 Yrotation Xrotation Zrotation
                    JOINT leftLittleDistal
                    {
                      OFFSET 0.1475273964999999 -0.008152365682999818 0.006001092492999946
                      CHANNELS 3 Yrotation Xrotation Zrotation
                      End Site
                      {
                        OFFSET 0.1475273964999999 -0.008152365682999818 0.006001092492999946
                      }
                    }
                  }
                }
                JOINT leftRingProximal
                {
                  OFFSET 0.5799399463000003 0.026911854694997794 -0.12150566991816003
                  CHANNELS 3 Yrotation Xrotation Zrotation
                  JOINT leftRingIntermediate
                  {
                    OFFSET 0.26167887460000006 -0.013480186499999602 0.010996293000000053
                    CHANNELS 3 Yrotation Xrotation Zrotation
                    JOINT leftRingDistal
                    {
                      OFFSET 0.17667108799999987 -0.008990287899999228 0.0055541023999999065
                      CHANNELS 3 Yrotation Xrotation Zrotation
                      End Site
                      {
                        OFFSET 0.17667108799999987 -0.008990287899999228 0.0055541023999999065
                      }
                    }
                  }
                }
                JOINT leftThumbProximal
                {
                  OFFSET 0.11018806699999972 -0.09448718900500053 0.17047963138184
                  CHANNELS 3 Yrotation Xrotation Zrotation
                  JOINT leftThumbIntermediate
                  {
                    OFFSET 0.31062601459999983 -0.08126270900000132 0.15443142000000007
                    CHANNELS 3 Yrotation Xrotation Zrotation
                    JOINT leftThumbDistal
                    {
                      OFFSET 0.21627175790000086 -0.08833193599999878 0.018771167799999988
                      CHANNELS 3 Yrotation Xrotation Zrotation
                      End Site
                      {
                        OFFSET 0.21627175790000086 -0.08833193599999878 0.018771167799999988
                      }
                    }
                  }
                }
              }
            }
          }
        }
        JOINT neck
        {
          OFFSET 0 1.5463305265074576 0
          CHANNELS 3 Yrotation Xrotation Zrotation
          JOINT head
          {
            OFFSET 0 0.8456443600000344 0
            CHANNELS 3 Yrotation Xrotation Zrotation
            JOINT leftEye
            {
              OFFSET 0.30408573140000006 0.5104519199999995 0.1276382305
              CHANNELS 3 Yrotation Xrotation Zrotation
              End Site
              {
                OFFSET 0.30408573140000006 0.5104519199999995 0.1276382305
              }
            }
            JOINT rightEye
            {
              OFFSET -0.30409491089999996 0.5104519199999995 0.1276379445
              CHANNELS 3 Yrotation Xrotation Zrotation
              End Site
              {
                OFFSET -0.30409491089999996 0.5104519199999995 0.1276379445
              }
            }
            JOINT jaw
            {
              OFFSET -3.155239131000001e-7 -0.11984121820000082 0.60178107
              CHANNELS 3 Yrotation Xrotation Zrotation
              End Site
              {
                OFFSET -3.155239131000001e-7 -0.11984121820000082 0.60178107
              }
            }
          }
        }
        JOINT rightShoulder
        {
          OFFSET -0.1807303465 1.5087829790000005 0
          CHANNELS 3 Yrotation Xrotation Zrotation
          JOINT rightUpperArm
          {
            OFFSET -0.5985063796536958 0 0
            CHANNELS 3 Yrotation Xrotation Zrotation
            JOINT rightLowerArm
            {
              OFFSET -2.2993322059002854 0 0
              CHANNELS 3 Yrotation Xrotation Zrotation
              JOINT rightHand
              {
                OFFSET -2.395045314457259 0 0
                CHANNELS 3 Yrotation Xrotation Zrotation
                JOINT rightIndexProximal
                {
                  OFFSET -0.5764487688300002 0.0441371204405987 0.17361932004999997
                  CHANNELS 3 Yrotation Xrotation Zrotation
                  JOINT rightIndexIntermediate
                  {
                    OFFSET -0.29573011380000047 -0.01934826376999843 -0.007698921482999974
                    CHANNELS 3 Yrotation Xrotation Zrotation
                    JOINT rightIndexDistal
                    {
                      OFFSET -0.19008373999999884 -0.012503266380000655 -0.0026365778999999897
                      CHANNELS 3 Yrotation Xrotation Zrotation
                      End Site
                      {
                        OFFSET -0.19008373999999884 -0.012503266380000655 -0.0026365778999999897
                      }
                    }
                  }
                }
                JOINT rightMiddleProximal
                {
                  OFFSET -0.5834852037300005 0.05211639405060153 0.02307162440000001
                  CHANNELS 3 Yrotation Xrotation Zrotation
                  JOINT rightMiddleIntermediate
                  {
                    OFFSET -0.33880114510000003 -0.019952774050000954 0.0002455003561999819
                    CHANNELS 3 Yrotation Xrotation Zrotation
                    JOINT rightMiddleDistal
                    {
                      OFFSET -0.20675694929999955 -0.012273788999999091 0.00030209124000002766
                      CHANNELS 3 Yrotation Xrotation Zrotation
                      End Site
                      {
                        OFFSET -0.20675694929999955 -0.012273788999999091 0.00030209124000002766
                      }
                    }
                  }
                }
                JOINT rightLittleProximal
                {
                  OFFSET -0.5346811737299992 -0.011214256288399227 -0.24363941305000003
                  CHANNELS 3 Yrotation Xrotation Zrotation
                  JOINT rightLittleIntermediate
                  {
                    OFFSET -0.21757715980000092 -0.011771559690000988 0.01201554387
                    CHANNELS 3 Yrotation Xrotation Zrotation
                    JOINT rightLittleDistal
                    {
                      OFFSET -0.1475201849000004 -0.00822055339600003 0.006082065407000015
                      CHANNELS 3 Yrotation Xrotation Zrotation
                      End Site
                      {
                        OFFSET -0.1475201849000004 -0.00822055339600003 0.006082065407000015
                      }
                    }
                  }
                }
                JOINT rightRingProximal
                {
                  OFFSET -0.5800810755299999 0.027657985680600072 -0.12066365025000003
                  CHANNELS 3 Yrotation Xrotation Zrotation
                  JOINT rightRingIntermediate
                  {
                    OFFSET -0.26166445029999974 -0.013623118409999302 0.011164098990000045
                    CHANNELS 3 Yrotation Xrotation Zrotation
                    JOINT rightRingDistal
                    {
                      OFFSET -0.17666387530000027 -0.009072900100000503 0.005668185599999959
                      CHANNELS 3 Yrotation Xrotation Zrotation
                      End Site
                      {
                        OFFSET -0.17666387530000027 -0.009072900100000503 0.005668185599999959
                      }
                    }
                  }
                }
                JOINT rightThumbProximal
                {
                  OFFSET -0.10997596379000074 -0.09577489355940072 0.16989765924999997
                  CHANNELS 3 Yrotation Xrotation Zrotation
                  JOINT rightThumbIntermediate
                  {
                    OFFSET -0.31036620999999986 -0.08229339117999834 0.15440884469999996
                    CHANNELS 3 Yrotation Xrotation Zrotation
                    JOINT rightThumbDistal
                    {
                      OFFSET -0.21631306399999906 -0.08825326400000111 0.018656797720000014
                      CHANNELS 3 Yrotation Xrotation Zrotation
                      End Site
                      {
                        OFFSET -0.21631306399999906 -0.08825326400000111 0.018656797720000014
                      }
                    }
                  }
                }
              }
            }
          }
        }
      }
    }
  }
}
MOTION
Frames: 4
Frame Time: 0.03333333333333333
0.014882620424032211 -0.08926425688476591 0.009038192220032215 -5.277522257305015 -3.7300041233437975 -3.3535623522699005 15.116277169244048 -10.397921266450956 7.363480137484642 2.1333148092969982 12.12442757394319 4.5868787508978075 0.4224545728619515 1.28484855038254 -7.107298616068251 0.0000018728708568174167 -4.933343726332933 -0.00000302469711316911 -10.334275932169769 0.650006013768626 3.5327373551384516 -9.884791822278228 7.228405438995294 -4.406466773922321 -1.6103650365806887 -3.656368180395614 3.3251901026238775 -0.0000014433954066772245 -7.2828812582815745 -8.406041237425722e-7 1.5696722803934984 3.298169928605577 2.8223699087439615 0.7543602208269744 2.267635688324283 3.122796492817328 0 0 0 -17.601458059842173 1.0181087475294077 -12.414048148695295 -20.717841832717017 3.227163657177777 -70.889905816591 -1.459242507760301 0.00023104259207796255 0.018850762263698525 -1.721176553763798 -33.225248689800516 -5.232165785208248 -1.0628352208645906 0.011332185205090002 -7.5801791293825485 1.5317880710831975 0.2342416966237652 -17.38969843055929 0.7174181926463816 0.05045148230349485 -8.047194918052437 2.4653773823759635 -0.10316233249946838 -15.73321113092144 1.5333512404687721 0.23472208172475081 -17.408103330877914 1.6191588516684354 0.26246675831525945 -18.41591022469944 5.221268515789279 0.8405022112936803 -27.112923634236658 1.5343669515363947 0.23505052053419767 -17.419852400409997 1.4573472537820358 0.2115598406410804 -16.519864251374184 3.36599071955524 0.08477536507494939 -21.171497548261588 1.8307372056954974 0.33809934096961747 -20.927073110633742 1.5735388581446401 0.24751465909634396 -17.879301291279113 2.207921255431866 -0.6739139119700043 4.789786218218563 26.124802343779347 10.709245347150853 21.93004689785848 3.761852390480678 -13.792980644141883 8.091981087263509 -0.0730797746170734 5.625349647702335 0.44849778623557734 1.3876943502652317 -7.560901153188513 -0.2874217247276144 0 0 0 0 0 0 0 0 0 15.535165178982398 1.1663782616587046 14.832397383885048 28.797006921870057 11.307944678736236 64.73357177522443 6.693180102595198 0.005041371220653707 -0.08625022062331353 -0.4545941372161878 -20.183607671651693 6.945666885841368 1.3500400035765396 0.032819387591847764 6.80771626720487 -1.174529601519365 0.17995147460993174 17.419204108753853 -0.5501098749107913 0.038756327250419574 8.060543437917781 -2.0134165144924716 -0.1609273258198991 15.030873652275217 -1.1764864625184246 0.18056840916387776 17.449081737229665 -1.2422324407531458 0.20183971115689406 18.458552307511468 -4.559664291137705 0.6625086414007938 26.47503659400323 -1.176498199489534 0.1805392739935371 17.449403627093833 -1.1174544629077925 0.1625047589558887 16.547799569275554 -2.81694575714425 -0.015196572439382397 20.487475935266705 -1.4035572839573751 0.25963252055698505 20.960681309621947 -1.2065217282910718 0.1901240138834117 17.909317188688927 -0.22892921056304993 -1.6660793980352449 -4.209714764603824 -30.655589929644922 11.0454342779379 -22.215239564839585 -3.8617100037594407 -15.533030982198268 -11.629497064102146
0.014986874535679817 -0.08932529204101591 0.008308322168886662 -5.267893247900262 -3.730017812720618 -3.3533678662301085 15.116644482877016 -10.404994909955528 7.361403649702345 2.1217413063520016 12.125264151257753 4.584631227076763 0.4227458327846979 1.2842850248748103 -7.097716717151983 -0.0000033189796998444593 -4.933343726332933 5.118428738804622e-8 -10.334062796400252 0.6384204801928413 3.534840808039992 -9.897830168629582 7.236576176728667 -4.415005874039952 -1.6098010722430756 -3.65380677192914 3.3286636628388675 0.000007452143677549585 -7.282874372540795 0.0000016218534103360077 1.5697185370368947 3.2981812598749487 2.8220559744543765 0.7543599004387139 2.2676337658280827 3.122796706110827 0 0 0 -17.591543128963266 1.0221825338606776 -12.4078811116614 -20.731695338047253 3.2342651067852515 -70.9009625040036 -1.459237600153902 0.00023693471934049278 0.018843091641468256 -1.714197887802409 -33.22421174407454 -5.232336696425107 -1.0628383152616867 0.011310019606624498 -7.58017489781896 1.531792551830639 0.23425276909327747 -17.389695171527432 0.7174127502638311 0.05044709337164324 -8.047208076631906 2.4406468312290728 -0.11015443728657269 -15.735453862707534 1.5333621222758553 0.23473550209187433 -17.408119016766992 1.6191613053133842 0.2624671852065617 -18.415903744227624 5.219654140383724 0.8394213777965917 -27.09167278396937 1.5352828365931817 0.23533619026693992 -17.43066390867731 1.4582787138019286 0.2118276072285513 -16.530663798271238 3.365086828956295 0.08458069780089934 -21.161311236127172 1.8307331522700312 0.33809459177102524 -20.927073110633742 1.5735473927410948 0.24751332506257392 -17.879310465252182 2.2079223219303885 -0.6739259723570101 4.789788345345914 26.109924856049986 10.712583708398652 21.925593324392704 3.761864255908433 -13.793005259629869 8.091947142775528 -0.07307860170078655 5.625348789797129 0.4484961509039212 1.3877282788700125 -7.553925849934631 -0.287235947057343 0 0 0 0 0 0 0 0 0 15.535459730305941 1.1639490935254466 14.841137767409311 28.87353365282352 11.321545826093049 64.76194533001174 6.725246737689385 0.005095175635844593 -0.08667684015377254 -0.43329662146156644 -20.231514471454467 6.9648599485589 1.3577968100011908 0.03578440725978453 6.75409976919473 -1.1745253335269172 0.17993018352463017 17.419199221011972 -0.5501115290213529 0.03874840316195283 8.060545128595654 -2.0137049129140943 -0.15769471285538514 14.898895374943374 -1.1764840084244528 0.18054586409158627 17.449076850287877 -1.2422488721348914 0.2018634168629005 18.458563107054804 -4.551275778468649 0.6567440599686467 26.330045234649187 -1.1765032143771599 0.18056172568386417 17.449401998116173 -1.1174576639629012 0.16250142388916924 16.547788775612055 -2.7990363529292774 -0.020668001131761104 20.41623570503807 -1.4035604846808458 0.2596598415941988 20.960698104109568 -1.2065081775646793 0.1901144355575868 17.909298840156502 -0.23197591176815444 -1.6658232643987487 -4.210689087648847 -30.648057117605013 11.047167969492492 -22.213035073050012 -3.8782074848897254 -15.526445304007854 -11.629005143750852
0.015211657620966434 -0.08966766112060576 0.006960141006857157 -5.254934537995457 -3.7255153026193804 -3.352234573304684 15.117587442469526 -10.43230489820092 7.353854146141292 2.107519193231883 12.144479954655996 4.582384673406159 0.4233340922807113 1.2744002375888193 -7.081333798849066 7.991078246212186e-7 -4.933340298539818 4.157795846480211e-7 -10.333329437961096 0.5973854648240889 3.5435508172068735 -9.930918810663316 7.279377290606877 -4.437913158648729 -1.6078926433133125 -3.6630613275551753 3.334870611985627 -0.0000014440917904161028 -7.282871790388031 -8.405954535752029e-7 1.5698283745827533 3.2982169640641903 2.820760395792238 0.7543591528661062 2.2676318433318845 3.122796492817328 0 0 0 -17.580871045183873 1.0298826723434886 -12.390571071656467 -20.743278388959165 3.2420254930255683 -70.93623318465713 -1.47017226417473 0.00024754438372435523 0.018984687992676733 -1.699986007240407 -33.22214605418265 -5.232620439884169 -1.0604866036266714 0.009780998525393372 -7.606167278040694 1.531791484986012 0.23424089620428268 -17.389696801043378 0.7174172855826242 0.05045950310980498 -8.047223293236208 2.43579860562186 -0.11150084084555596 -15.735898094188036 1.5333705350435283 0.23473051281025828 -17.40827833319447 1.6191774140257251 0.26247561630978355 -18.41607059842989 5.2190795659569185 0.8390689982837747 -27.08417422119354 1.5341122198114931 0.23497066534610528 -17.416899343501807 1.45708921539009 0.21146867300269828 -16.516905216237625 3.3704575054029946 0.0856629037825932 -21.221634769156363 1.830735925666405 0.33808621397126715 -20.92707592539451 1.5735394982393767 0.24751762065131383 -17.87929049220909 2.2090969675134455 -0.6739386197540351 4.778294469738458 26.109657408496247 10.712634105596857 21.92552073769427 3.7714293842998567 -13.790608778226341 8.092040157437665 -0.07308023475582974 5.6253505056075435 0.4484981883663124 1.3878384319438088 -7.531490923427675 -0.28663317196222343 0 0 0 0 0 0 0 0 0 15.540411833537123 1.1584110207032263 14.856863434591531 29.06769294266799 11.366900720427083 64.8391489363232 6.817841973416369 0.005223379671132642 -0.0878472209271783 -0.40223852402257637 -20.35507155879016 7.013951759343907 1.4467029781323637 0.04002030941691709 6.4050008091249255 -1.1745289613204986 0.17994234985908517 17.41918679393097 -0.5501077939329868 0.038759802376759175 8.060550200629187 -1.9568140471297188 -0.1586908570539818 14.322418880594105 -1.175626752224141 0.18028112624774498 17.435981572331112 -1.2414061268726322 0.20158204334172503 18.44556261499397 -4.510866498505343 0.6294420738606571 25.635305538298244 -1.1753683986469452 0.18020779473280005 17.432142304658818 -1.1163087659113007 0.16215883249840823 16.530214827755263 -2.764015022106863 -0.02718657683303443 20.040519821140606 -1.4023077386062106 0.2591702507507291 20.940971896941935 -1.2052336206225578 0.18970818381269056 17.889522411386345 -0.25110651926432415 -1.6477904294174326 -4.328351099571045 -30.6008313634991 11.033635356550924 -22.19069372910648 -3.9575486782425866 -15.490075445911849 -11.63440859724522
0.015532982535660267 -0.09053455107421904 0.0057739317417144775 -5.249295903185895 -3.714436872940744 -3.3492785796153655 15.118614814677032 -10.478858938385478 7.341293804209335 2.1088945778983272 12.20318041382901 4.584234318984535 0.42387725528842857 1.2341265153401249 -7.067730669253134 -0.000004048077886369159 -4.933343726332933 -0.0000012328277448939183 -10.327759937435497 0.523755964976562 3.547102976460497 -9.962879586725093 7.381505431398599 -4.46817989358742 -1.6050974616209257 -3.7054833686265605 3.349612839828011 -0.000009272792636448824 -7.282877815411172 9.79929916961988e-7 1.569922063334098 3.298297138146501 2.8177341042657806 0.754360327623061 2.2676335522173936 3.122797559284821 0 0 0 -17.583953135907834 1.0352770499072617 -12.371007887066929 -20.743998786117594 3.2451127750734003 -70.97737590150048 -1.4869599630507797 0.00024593232838781583 0.019179950351123267 -1.696263000916214 -33.22161126889832 -5.233004909034945 -1.0686530503681935 0.0107762968422261 -7.5775197649278345 1.5317833923599784 0.23424263044649477 -17.389709228329913 0.7174164318755578 0.05045107542683382 -8.047209767365773 2.4500776295204894 -0.10702158930617908 -15.71505163311583 1.5334363593089921 0.23476679849477894 -17.40901277944245 1.619232674374724 0.26248306022687345 -18.416760152076332 5.21959569688037 0.8393980032345584 -27.090858608271226 1.5334099015820313 0.23474310607722834 -17.408738967261414 1.4563907220994958 0.21126531340856372 -16.508719922680914 3.3695998520864676 0.0852653649863023 -21.224215031287144 1.830741899135488 0.3380972598601217 -20.927063916120957 1.5735425920305977 0.24752106245844183 -17.879299666182025 2.2089850669077404 -0.6739528147228873 4.779460463203247 26.11620208740209 10.711186492863332 21.927484462994915 3.764898193231532 -13.792250971927153 8.091970639035265 -0.07295924573911684 5.625349218749732 0.45786496739578947 1.3899134473681656 -7.512785130552193 -0.27679944754376423 0 0 0 0 0 0 0 0 0 15.553863519194199 1.1498622651316417 14.875475670206587 29.346767657698535 11.45220857086837 64.90931923367961 6.984540090833453 0.005500831094479906 -0.08999301698786105 -0.4342333129251728 -20.455042892583315 7.037595765147772 1.5544319642144455 0.046338946563079846 6.013035078892458 -1.1745294948195537 0.17992539436446867 17.419204108753853 -0.5501127562646719 0.038755833662417416 8.060548509951357 -1.8995289543634253 -0.1557910306244766 13.610732901054837 -1.1750034519934978 0.1800763396219749 17.426553213924898 -1.24080160400455 0.20137007938334123 18.436171871285598 -4.509326482732063 0.6189952665002361 24.77915367287876 -1.1840469449868134 0.1829358019941172 17.565087031136787 -1.125055658824051 0.16477225760623548 16.663492625915698 -2.760552338912166 -0.020928977407757787 19.589503583142708 -1.3986205108290193 0.2577587617888383 20.88351593188283 -1.2015034181090452 0.18850062113460778 17.832344126368003 -0.2159318856175107 -1.6567271786993005 -4.4142158162886815 -30.589306851614943 11.03147204041023 -22.18207550966513 -4.00805456161371 -15.466926752561221 -11.638200682924701
